<svg width="47" height="47" fill="none" xmlns="http://www.w3.org/2000/svg"><path d="M23.5 13.735a9.751 9.751 0 00-9.765 9.765c0 5.357 4.36 9.718 9.765 9.718 5.356 0 9.765-4.362 9.765-9.718 0-5.404-4.409-9.765-9.765-9.765zm0 14.458a4.673 4.673 0 01-4.693-4.693 4.673 4.673 0 014.693-4.693 4.673 4.673 0 014.693 4.693 4.673 4.673 0 01-4.693 4.693z" fill="#F4ED47"/><path d="M28.525 1.078a.816.816 0 00-.57-.474 16.903 16.903 0 00-8.958 0c-.237.048-.427.237-.57.474a1.166 1.166 0 00-.046.806l2.701 10.05c.095.379.427.663.806.663h.143a7.182 7.182 0 012.844 0 .805.805 0 00.948-.616l2.702-10.097c.142-.237.142-.521 0-.806z" fill="#E87FC9"/><path d="M16.674 1.6a.976.976 0 00-.711-.142A16.768 16.768 0 008.189 5.96c-.19.19-.237.427-.237.711s.142.521.332.758l7.395 7.348a.865.865 0 001.042.142c.048-.047.095-.047.143-.095a6.456 6.456 0 012.465-1.422c.426-.142.663-.569.521-1.043L17.1 2.264c-.047-.285-.236-.522-.426-.664z" fill="#CC00A0"/><path d="M6.625 7.952a.782.782 0 00-.711.237c-2.18 2.133-3.745 4.835-4.456 7.774a.976.976 0 00.142.711c.142.237.38.38.664.474l10.05 2.655c.379.094.805-.048.947-.38.048-.047.048-.095.048-.142.284-.9.758-1.754 1.422-2.465a.817.817 0 00-.048-1.137L7.336 8.284c-.19-.19-.474-.332-.711-.332z" fill="#6689CC"/><path d="M1.078 18.475a.816.816 0 00-.474.57 16.903 16.903 0 000 8.958c.048.237.237.427.474.57.237.094.522.141.806.046l10.05-2.701c.379-.095.663-.427.663-.806v-.142a7.182 7.182 0 010-2.845.805.805 0 00-.616-.948l-10.05-2.75a1.073 1.073 0 00-.853.048z" fill="#002B7F"/><path d="M1.6 30.326a.976.976 0 00-.142.711 16.768 16.768 0 004.503 7.774c.19.19.427.237.711.237.285 0 .522-.142.759-.332l7.347-7.395a.865.865 0 00.142-1.042c-.047-.048-.047-.095-.094-.143a6.456 6.456 0 01-1.423-2.465c-.142-.379-.616-.616-1.09-.474L2.263 29.9c-.284.048-.52.237-.663.427z" fill="#59BFE0"/><path d="M7.952 40.375a.782.782 0 00.237.712c2.133 2.18 4.835 3.744 7.774 4.455a.93.93 0 00.71-.142c.238-.142.38-.38.475-.663L19.85 34.64c.095-.38-.048-.806-.38-.948-.047-.048-.094-.048-.142-.048a6.456 6.456 0 01-2.465-1.422.817.817 0 00-1.137.047l-7.443 7.395c-.19.19-.331.474-.331.711z" fill="#0085CA"/><path d="M18.475 45.922a.816.816 0 00.57.474c2.938.806 6.02.806 8.958 0 .237-.048.427-.237.57-.474a1.17 1.17 0 00.046-.806l-2.701-10.05c-.095-.379-.427-.663-.806-.663h-.142c-.948.19-1.897.19-2.845 0a.805.805 0 00-.948.616l-2.702 10.097c-.142.237-.142.521 0 .806z" fill="#8CE2D0"/><path d="M30.326 45.4c.237.142.474.19.711.142a16.768 16.768 0 007.774-4.503c.19-.19.237-.427.237-.71 0-.285-.142-.522-.332-.76l-7.395-7.3a.865.865 0 00-1.042-.142c-.048.048-.095.048-.143.095a6.458 6.458 0 01-2.465 1.422c-.426.142-.663.57-.521 1.043l2.702 10.097c.095.237.284.474.474.616z" fill="#00B28C"/><path d="M40.375 39.048a.783.783 0 00.712-.237c2.18-2.133 3.744-4.835 4.455-7.774a.976.976 0 00-.142-.711c-.142-.237-.38-.38-.663-.474L34.64 27.15c-.38-.095-.806.047-.948.38-.048.047-.048.094-.048.142a6.456 6.456 0 01-1.422 2.464.817.817 0 00.047 1.138l7.348 7.395c.237.237.521.38.758.38z" fill="#FCBF49"/><path d="M45.922 28.525a.816.816 0 00.474-.57c.805-2.938.805-6.02 0-8.958-.048-.237-.238-.427-.474-.57a1.166 1.166 0 00-.806-.046l-10.05 2.701c-.379.095-.663.427-.663.806v.142c.19.949.19 1.897 0 2.845a.806.806 0 00.616.948l10.097 2.702c.237.142.521.142.806 0z" fill="#FF993F"/><path d="M45.4 16.674c.142-.237.19-.474.142-.711a16.769 16.769 0 00-4.503-7.774c-.19-.19-.426-.237-.71-.237-.285 0-.522.142-.76.332l-7.3 7.394a.865.865 0 00-.142 1.043c.048.048.048.095.095.143a6.456 6.456 0 011.422 2.464c.142.427.57.664 1.043.522l10.097-2.702a1.54 1.54 0 00.616-.474z" fill="#FC9BB2"/><path d="M39.048 6.625a.782.782 0 00-.237-.711c-2.133-2.181-4.835-3.745-7.774-4.456a.976.976 0 00-.711.142c-.237.142-.38.38-.474.664l-2.655 10.049c-.095.38.048.806.38.948.047.047.094.047.142.047.9.285 1.754.759 2.465 1.422a.817.817 0 001.137-.047l7.395-7.347c.19-.19.332-.474.332-.711z" fill="#E00747"/></svg>