<svg version="1.0" xmlns="http://www.w3.org/2000/svg" width="933.333" height="933.333" viewBox="0 0 700 700"><path d="M325.5 1.1c-10 1-23.2 3.3-35.5 6.2-7.7 1.8-10 2.8-12.7 5.4-5.9 6-5.8 7.3 2.9 39.3 2.1 8 4.8 17.9 5.9 22 1.1 4.1 4.5 16.7 7.5 28 3.1 11.3 8.9 33.1 13 48.4 4.1 15.4 8.2 29.2 9 30.7 2.9 5.7 8.8 7.3 19.4 5.4 6.1-1.1 20.5-1.2 26-.3 13 2.3 18.2 1.5 21.5-3.6.9-1.3 4-11.6 7-22.7 3-11.2 7.1-26.3 9-33.4 7.4-27.6 12.8-47.7 17.1-64 7.2-26.8 9.1-33.8 10.1-36.5 1.3-3.5-.2-10-3.2-13.2-3.3-3.6-18-7.6-38.4-10.4-2.5-.3-5.7-.8-7.1-1.1-4.6-.8-43.4-1-51.5-.2zm-96 23C190.7 36 157.4 55.3 128.2 82.7c-10.4 9.8-12.3 16.8-6.7 25.1 2.4 3.5 112.2 112.9 115 114.4 3.3 1.9 8.5 1.9 12.4-.1 2.2-1.2 4.3-2.5 4.6-3.1 2.2-3.5 17.8-13.1 27.1-16.6 12.3-4.6 15.4-7.4 15.4-14.1 0-2.2-20.5-79.9-25.4-96.3-.8-2.5-4.9-17.5-9.2-33.4-9.3-34.6-9.6-35.1-20.9-37-1.1-.2-6 .9-11 2.5zM455.8 22c-3.8 1.1-6.7 3.4-8.8 6.8-1.5 2.4-5.2 14.1-6.5 20.3-.2.9-1.8 6.9-3.5 13.4s-3.3 12.5-3.5 13.4c-.5 2-20.2 76.7-25 94.6-5.6 20.9-4.7 24.5 7.5 28.9 3.6 1.3 9 3.6 12 5.1 5.7 2.8 18.3 11.3 18.8 12.7.2.4 1.9 1.7 3.8 2.9 3.9 2.3 8.9 2.7 12.5.9 1.3-.7 24-22.7 50.4-49s51.4-51.2 55.6-55.3c9-8.9 11.4-12.1 12.2-16.5 1.2-5.9-.2-8.9-7.7-16.3-26.2-26.1-62-47.5-97.6-58.2-13.5-4.1-16.6-4.7-20.2-3.7zM92.4 118.9c-5.7 2.4-27 27.4-38.6 45.1-8.2 12.5-20.4 36.9-24.8 49.5-4.6 13.3-7.9 26.1-7.3 28.7.9 4.3 3.6 8.4 6.7 10.5 2.4 1.7 20.2 7 32.6 9.8.8.2 13.4 3.5 28 7.4 14.6 3.9 33.5 8.9 42 11.1 8.5 2.2 16.9 4.4 18.5 4.9 2.2.7 31.6 8.5 35.5 9.4 2 .5 9-1.6 10.3-3 .8-1 2.6-4.7 4-8.3 4.5-12 13.1-26.5 19.4-32.8 3.6-3.7 4.6-9.9 2.2-14.5-.6-1.2-5-6.1-9.8-10.9-63.8-64.3-104.1-104.3-106.2-105.4-3.6-1.8-9.9-2.6-12.5-1.5zm505.1-.1c-3.9.9-8.2 4.7-29.5 26.3-11.8 11.9-36.5 37-54.9 55.6S479 235.6 478.3 237c-1.8 3.5-1.6 9 .5 12.2.9 1.4 3.8 5.3 6.5 8.6 5.5 7.1 11.6 18.1 14.7 26.9 3.9 10.9 8.8 13 22 9.5 4.1-1.1 14.3-3.8 22.5-6 60.1-16.1 92-24.6 98-26.2 3.9-1.1 11.1-3 16.2-4.3 12.4-3.3 17.2-6.8 19.1-14 .9-3.3.6-5.4-1.7-13.5-7.8-26.6-20.2-52.2-36.7-75.2-10.4-14.6-26.2-32.3-31.1-34.9-2.5-1.3-8-2-10.8-1.3zm-252.8 85.8c-.1.1-3.6.4-7.7.7-48.3 3.6-93 33.7-116.6 78.7-2.6 4.9-5.1 10.7-8.3 19.5-1.4 4-4.9 18.1-5.5 22.5-2.2 15.4-2.5 22-1.5 34.5 1.1 13.1 1.7 16.8 5 28.5 17.7 62 73.7 104.9 137.4 105.4 15.2.1 21.7-.6 34.1-3.3 49.2-10.7 91-48.4 106.5-96.1 2.1-6.5 4-13.5 4.5-17 .3-1.4.7-3.1.9-3.8 1.5-4.2 2.2-28.9 1.1-38.7-3.7-34.4-17.8-63.9-42.1-88-21.1-21-47.8-35.4-74.5-40.1-1.4-.3-3.1-.7-3.7-.9-2.3-.8-28.8-2.5-29.6-1.9zm23.4 77.9c25.4 6.6 44.9 27.4 50.5 54 1.1 5 1.3 18.5.4 24.3-5.7 35.4-36.5 60.4-72.2 58.8-10.3-.5-16.3-2-25.5-6.1-20.6-9.4-33.8-25.6-39.6-48.6-1.8-7.2-1.5-25.4.7-33.1 3.1-11.3 11.4-25.1 19.5-32.6 9-8.3 22.6-15.4 33.9-17.6 8.4-1.8 23.7-1.3 32.3.9zm-349.8-8.1c-6.5 2.2-9.5 7.1-11.7 18.6-.2 1.4-.9 4.5-1.4 7-3.6 15.9-5 32.4-4.6 54 .2 11.3.5 21.8.7 23.5 1.4 9.7 3.1 20.1 4.1 25 4.8 23.4 9.2 27.1 27.1 22.6 5-1.3 11-2.9 13.5-3.6 4.3-1.3 89.9-24.3 93-25 3.3-.8 28.9-7.8 35.5-9.7 7.2-2.2 12.4-6.1 12.6-9.5 0-1 .2-2.5.4-3.5.1-.9-.2-4.5-.9-8-.6-3.4-1.1-10.1-1-14.8.1-7.7.4-11.6 2-21.7.3-1.7-.2-4.7-1-6.6-2.4-5.8-1.8-5.6-36.1-15-7.1-2-16.4-4.5-20.5-5.6-4.1-1.1-25.7-7-48-13.1s-43.9-12.1-48-13.2c-9.4-2.6-11.7-2.8-15.7-1.4zm654.6-.9c-.3.2-1.4.6-2.5.8-1 .2-3.9.9-6.4 1.6-2.5.7-25.2 6.8-50.5 13.6-55 14.8-56.3 15.1-78 20.9-15.2 4.1-17.3 4.9-19.7 7.8-1.6 1.8-2.9 3.9-2.9 4.8-.3 4-.3 6 .5 12 1.2 10.4 1.4 18.1.4 25.6-1.6 12.7-1.7 14.8-.2 17.6 2.7 5.1 2.1 4.9 65.9 21.9 8.3 2.2 16.1 4.2 17.5 4.5 1.4.2 3.6.9 5 1.4 2.4.9 46.9 12.9 50.1 13.5.8.2 6.5 1.7 12.5 3.5 6 1.7 12 3.2 13.4 3.2 3.8.1 9.4-2.9 11.2-6 1.5-2.6 5.3-16.9 6.4-24.2.3-1.9.7-4.2.9-5 .4-1.5.7-3.7 2.4-17.5.9-6.9.7-47.1-.2-51-.3-1.1-.8-4.5-1.2-7.5-.3-3-1.3-8.9-2.1-13-4-20.2-5.9-24.6-11.6-27.4-2.9-1.5-9.9-2.2-10.9-1.1zm-487.4 131c-.5.2-3.5 1-6.5 1.9-3 .9-6.6 1.8-7.9 2.1-1.3.2-8.1 2-15 3.9-15.8 4.4-21.3 5.9-22.6 6.2-.5.1-3 .7-5.5 1.4s-5.2 1.4-6 1.5c-1.9.4-33.1 9-42.5 11.6-3.8 1.1-8.1 2.2-9.5 2.5-1.3.3-9 2.3-17 4.5-8 2.3-15.4 4.2-16.4 4.5-8.1 1.6-13.2 5.8-14.6 11.9-2.3 10.3 15.8 54.4 32.8 80 9 13.5 15.5 21.7 26.3 33.6 7.9 8.6 10.9 10.7 16.1 11.3 7.8.9 9.3-.4 68.3-60 30.8-31.1 56.6-57.6 57.3-58.9 2.1-4.1.4-11.4-3.5-15.4-5.7-5.6-13.7-19-17.9-29.9-2.8-7.3-6.8-12.1-10.2-12.3-.9 0-2.4-.2-3.2-.3-.8-.2-1.9-.2-2.5-.1zm321.1 1c-3.5 1.9-5.3 4.1-6 7.6-.5 2.6-4.8 13-6.6 15.9-.5.8-2.2 3.7-3.8 6.5-1.6 2.7-4.7 7-6.9 9.5-5.1 5.8-6.3 8.1-6.3 12.3 0 4.5 3.7 9.1 21.2 26.4 7.3 7.3 31.5 31.5 53.8 53.9 22.3 22.3 41.7 41.2 43.1 41.9 7.8 4.1 12.4 2.8 21-5.9 27.6-27.7 50.3-67.3 60.4-104.8 3.1-11.7 1.6-17.9-5.5-22.1-2.3-1.4-46.1-13.7-54.4-15.3-1-.2-3.3-.8-5-1.3-1.7-.6-5.6-1.7-8.6-2.5s-23.5-6.2-45.5-12.1c-22-5.9-41.8-10.9-44-11.2-2.4-.2-5.1.2-6.9 1.2zM237 478.7c-1.4.9-24.3 23.4-51 49.9-26.7 26.6-51.5 51.2-55.1 54.7-8.6 8.4-11.6 12.4-12.3 16.6-.9 6.1.4 8.8 7.7 16.2 20.8 20.8 52 41.1 80.7 52.3 12.1 4.7 27.1 9.3 32.4 10 5.9.7 12.3-3.5 15-9.9.7-1.7 3.6-12 6.6-23 2.9-11 8.6-32.4 12.6-47.5 4.1-15.1 9-33.4 10.9-40.5 1.9-7.2 5.3-19.7 7.5-28 4.5-16.8 4.7-18.3 2.4-23.1-1.4-2.8-2.8-3.8-9.7-6.4-10.6-4.1-19.6-9-27-14.8-3.2-2.6-7.1-5.5-8.5-6.4-3.4-2.3-9-2.3-12.2-.1zm214.5-.5c-1.1.6-4 2.9-6.5 5.1-6.1 5.4-17.9 12.1-27.5 15.8-9.4 3.6-12.2 5.9-13.1 10.7-.7 3.8-.5 5.2 6.1 29.7 2.5 9.3 4.7 17.7 4.9 18.5.2.9 5.7 21.1 12.1 45 6.4 23.9 12.8 47.8 14.2 53 1.3 5.2 3.1 10.9 3.9 12.6 3.1 6.4 10.2 10.7 16.4 9.7 1.4-.2 9.3-2.6 17.5-5.4 26-8.7 55.1-24.5 76-41.3 11.7-9.5 22.5-19.7 24.2-23 2.3-4.4 1.9-11.9-.8-15.9-1.2-1.7-12.4-13.3-25-25.7-12.5-12.4-36.6-36.2-53.6-53-36.9-36.6-37.4-37-42.8-37-2.2 0-4.9.6-6 1.2zm-130.2 35.7c-1.7 1.1-3.7 2.9-4.3 4.1-.6 1.2-3.5 11-6.4 21.8-6.2 22.9-12.1 44.7-25.6 95.2-5.4 20.1-10.2 37.6-10.8 39-1.3 3.5.4 10 3.5 13.2 3.5 3.7 16.4 7.2 38.2 10.5 12.1 1.8 45.5 2.5 57.6 1.2 15.1-1.6 17.5-2 43.4-7.7 3.6-.8 8.9-6.7 9.7-10.9.7-3.7-.1-7.6-4.6-24.3-1.1-4.1-2.9-10.7-3.9-14.5-19.4-72.6-32.5-120.4-33.7-122.7-3.1-6-7.4-7-23.3-5-7.4.9-16.3.8-23.6-.3-11.8-1.6-13-1.6-16.2.4z"/></svg>