<svg width="301" height="64" fill="none" xmlns="http://www.w3.org/2000/svg"><path d="M32 18.703A13.278 13.278 0 0018.703 32c0 7.294 5.938 13.233 13.297 13.233 7.294 0 13.297-5.939 13.297-13.233 0-7.358-6.003-13.297-13.297-13.297zm0 19.687c-3.55 0-6.39-2.84-6.39-6.39s2.84-6.39 6.39-6.39 6.39 2.84 6.39 6.39-2.84 6.39-6.39 6.39z" fill="#F4ED47"/><path d="M38.842 1.468a1.112 1.112 0 00-.774-.645 23.017 23.017 0 00-12.2 0c-.323.065-.58.323-.775.645-.129.323-.193.71-.064 1.098l3.68 13.684c.128.517.58.904 1.096.904H30a9.779 9.779 0 013.873 0c.581.129 1.162-.258 1.291-.84l3.68-13.748c.193-.323.193-.71 0-1.098z" fill="#E87FC9"/><path d="M22.705 2.179c-.323-.194-.645-.259-.968-.194A22.832 22.832 0 0011.15 8.117c-.258.258-.323.581-.323.968 0 .388.194.71.452 1.033l10.07 10.005c.387.387.968.452 1.42.194.064-.065.129-.065.193-.13a8.792 8.792 0 013.357-1.936c.58-.194.904-.774.71-1.42L23.286 3.082c-.065-.387-.323-.71-.58-.903z" fill="#CC00A0"/><path d="M9.02 10.828c-.386-.064-.71.065-.967.323-2.97 2.905-5.1 6.584-6.068 10.586-.064.323 0 .645.194.968.193.323.516.516.903.646l13.685 3.614c.516.13 1.097-.064 1.29-.516.065-.065.065-.13.065-.194A8.793 8.793 0 0120.06 22.9a1.113 1.113 0 00-.065-1.55L9.99 11.28c-.258-.257-.645-.451-.968-.451z" fill="#6689CC"/><path d="M1.468 25.158c-.322.129-.58.452-.645.774a23.017 23.017 0 000 12.2c.065.323.323.581.645.775.323.129.71.193 1.098.064l13.684-3.679c.517-.13.904-.58.904-1.097V34a9.779 9.779 0 010-3.873c.129-.58-.258-1.162-.84-1.29L2.63 25.092c-.387-.129-.774-.129-1.162.065z" fill="#002B7F"/><path d="M2.179 41.295c-.194.323-.258.645-.194.968A22.833 22.833 0 008.117 52.85c.258.258.581.323.968.323.388 0 .71-.194 1.033-.452l10.005-10.07c.388-.387.452-.968.194-1.42-.065-.064-.065-.129-.13-.193a8.793 8.793 0 01-1.936-3.357c-.193-.516-.839-.839-1.484-.645L3.082 40.714c-.387.065-.71.323-.903.581z" fill="#59BFE0"/><path d="M10.828 54.98c-.065.387.065.71.323.968 2.904 2.969 6.584 5.099 10.586 6.067.322.065.71 0 .968-.194.323-.193.516-.516.645-.903l3.68-13.75c.129-.515-.065-1.096-.517-1.29-.064-.065-.129-.065-.193-.065a8.793 8.793 0 01-3.357-1.936 1.113 1.113 0 00-1.549.064L11.28 54.011c-.258.258-.452.646-.452.968z" fill="#0085CA"/><path d="M25.158 62.532c.129.322.452.58.774.645a23.017 23.017 0 0012.2 0c.323-.065.581-.323.775-.645.129-.323.193-.71.064-1.098L35.292 47.75c-.129-.517-.58-.904-1.097-.904H34a9.779 9.779 0 01-3.873 0c-.58-.129-1.162.258-1.29.84l-3.68 13.748c-.194.323-.194.71 0 1.098z" fill="#8CE2D0"/><path d="M41.295 61.822c.322.193.645.258.968.193a22.83 22.83 0 0010.586-6.132c.258-.258.323-.58.323-.968 0-.387-.194-.71-.452-1.033l-10.07-9.94a1.178 1.178 0 00-1.42-.194c-.064.064-.129.064-.194.129a8.792 8.792 0 01-3.356 1.936c-.581.194-.904.775-.71 1.42l3.68 13.75c.128.322.386.645.645.839z" fill="#00B28C"/><path d="M54.98 53.172c.387.065.71-.065.968-.323 2.969-2.904 5.1-6.584 6.067-10.586.065-.322 0-.645-.193-.968-.194-.323-.517-.516-.904-.645l-13.749-3.68c-.516-.129-1.097.065-1.29.517-.065.064-.065.129-.065.193a8.793 8.793 0 01-1.937 3.357 1.113 1.113 0 00.065 1.549l10.005 10.07c.322.322.71.516 1.032.516z" fill="#FCBF49"/><path d="M62.532 38.842c.322-.129.58-.452.645-.774a23.017 23.017 0 000-12.2c-.065-.323-.323-.581-.645-.775-.323-.129-.71-.193-1.098-.064L47.75 28.708c-.517.13-.904.581-.904 1.097V30a9.779 9.779 0 010 3.873c-.129.58.258 1.162.84 1.29l13.748 3.68c.323.194.71.194 1.098 0z" fill="#FF993F"/><path d="M61.822 22.705c.194-.323.258-.645.194-.968a22.832 22.832 0 00-6.133-10.586c-.258-.258-.58-.323-.968-.323-.387 0-.71.194-1.033.452l-9.94 10.07a1.177 1.177 0 00-.194 1.42c.065.064.065.129.13.193a8.792 8.792 0 011.936 3.357c.193.58.774.903 1.42.71l13.749-3.68c.322-.129.645-.387.839-.645z" fill="#FC9BB2"/><path d="M53.172 9.02c.064-.387-.065-.71-.323-.968-2.905-2.969-6.584-5.099-10.586-6.067-.323-.065-.646 0-.968.194-.323.193-.517.516-.646.903l-3.615 13.685c-.129.516.065 1.097.517 1.29.064.065.129.065.193.065a8.792 8.792 0 013.357 1.936 1.113 1.113 0 001.55-.064L52.72 9.989c.258-.258.452-.646.452-.968z" fill="#E00747"/><path d="M81.573 11.86h1.42v2.066c0 .775-.129 1.356-.129 1.356h.065s1.42-3.873 6.197-3.873c4.647 0 7.487 3.68 7.487 9.037 0 5.486-3.227 9.037-7.681 9.037-4.519 0-6.068-3.873-6.068-3.873H82.8s.129.645.129 1.549v8.843h-1.42V11.861h.064zm7.423 16.267c3.357 0 6.133-2.775 6.133-7.617 0-4.647-2.518-7.616-6.004-7.616-3.162 0-6.132 2.259-6.132 7.68 0 3.81 2.13 7.553 6.003 7.553zm11.683-2.13s1.937 2.195 5.358 2.195c2.13 0 4.002-1.098 4.002-3.228 0-4.39-9.489-3.163-9.489-8.778 0-3.099 2.582-4.648 5.552-4.648 3.55 0 5.099 1.872 5.099 1.872l-.839 1.162s-1.42-1.614-4.325-1.614c-1.936 0-3.873.904-3.873 3.163 0 4.519 9.489 3.163 9.489 8.843 0 2.776-2.324 4.648-5.551 4.648-4.196 0-6.262-2.518-6.262-2.518l.839-1.097zm13.168 8.198s.968.839 2.13.839c1.679 0 2.711-1.485 3.357-3.099l1.226-2.84-7.165-17.17h1.55l5.68 13.75c.323.838.645 1.613.645 1.613h.065s.258-.775.581-1.614l5.68-13.749h1.549l-8.843 21.301c-.774 1.808-2.195 3.228-4.389 3.228-1.678 0-2.776-.968-2.776-.968l.71-1.291zm26.337-22.722c4.131 0 6.196 2.453 6.196 2.453l-.903 1.162s-1.937-2.194-5.293-2.194c-4.067 0-7.359 3.033-7.359 7.68 0 4.584 3.357 7.618 7.359 7.618 3.808 0 5.744-2.518 5.744-2.518l.775 1.227s-2.259 2.71-6.519 2.71c-4.842 0-8.908-3.55-8.908-9.036 0-5.487 4.131-9.101 8.908-9.101zm10.973-6.519h1.42v9.94a8.09 8.09 0 01-.129 1.42h.064c.581-1.613 3.034-4.84 7.294-4.84 4.519 0 5.681 2.646 5.681 6.713V29.16h-1.421V18.703c0-3.034-.387-5.81-4.26-5.81-3.227 0-6.132 2.26-6.971 5.487-.194.71-.258 1.55-.258 2.324v8.456h-1.42V4.954zm19.752 0h1.743v2.518h-1.743V4.954zm.129 6.907h1.42v17.234h-1.42V11.861zm14.91-.388c4.131 0 6.197 2.453 6.197 2.453l-.904 1.162s-1.936-2.194-5.293-2.194c-4.066 0-7.358 3.033-7.358 7.68 0 4.584 3.356 7.618 7.358 7.618 3.809 0 5.745-2.518 5.745-2.518l.775 1.227s-2.26 2.71-6.52 2.71c-4.841 0-8.907-3.55-8.907-9.036 0-5.487 4.131-9.101 8.907-9.101zm20.204.387h1.421v2.066c0 .775-.13 1.356-.13 1.356h.065s1.42-3.873 6.197-3.873c4.647 0 7.487 3.68 7.487 9.037 0 5.486-3.227 9.037-7.681 9.037-4.518 0-6.068-3.873-6.068-3.873h-.064s.129.645.129 1.549v8.843h-1.42V11.861h.064zm7.424 16.267c3.356 0 6.132-2.775 6.132-7.617 0-4.647-2.518-7.616-6.003-7.616-3.163 0-6.132 2.259-6.132 7.68 0 3.81 2.13 7.553 6.003 7.553zm19.88-16.654c4.97 0 8.972 3.873 8.972 8.973 0 5.164-4.002 9.166-8.972 9.166-4.906 0-8.972-4.002-8.972-9.166.064-5.1 4.066-8.973 8.972-8.973zm0 16.654c4.131 0 7.423-3.357 7.423-7.746 0-4.26-3.292-7.552-7.423-7.552s-7.423 3.227-7.423 7.552c0 4.39 3.292 7.746 7.423 7.746zm11.103-16.267h1.549l4.712 13.556c.258.84.581 1.872.581 1.872h.064s.323-1.033.581-1.872l4.712-13.49h1.614l4.712 13.49c.258.84.581 1.872.581 1.872h.065s.258-1.033.58-1.872l4.713-13.555h1.549l-6.068 17.234h-1.549l-4.777-13.361c-.322-.84-.581-1.872-.581-1.872h-.064s-.258 1.033-.581 1.872l-4.777 13.426h-1.549l-6.067-17.3zm36.663-.387c4.712 0 7.036 3.68 7.036 7.875 0 .388-.065.904-.065.904h-13.878c0 5.035 3.357 7.875 7.359 7.875 3.292 0 5.357-2.195 5.357-2.195l.775 1.227s-2.388 2.388-6.132 2.388c-4.841 0-8.908-3.55-8.908-9.037.065-5.81 4.067-9.037 8.456-9.037zm5.551 7.424c-.193-4.196-2.711-6.132-5.551-6.132-3.163 0-6.132 2.065-6.713 6.132h12.264zm6.003-7.037h1.42v3.293c0 .774-.129 1.42-.129 1.42h.065c.839-2.647 2.775-4.841 5.551-4.841.516 0 1.033.129 1.033.129v1.42s-.387-.065-.775-.065c-2.711 0-4.389 2.26-5.164 4.842-.387 1.226-.516 2.517-.516 3.614v7.488h-1.42v-17.3h-.065zM86.156 44.78c2.388 0 3.55 1.873 3.55 4.003 0 .193-.065.451-.065.451h-6.97c0 2.518 1.677 4.002 3.743 4.002 1.678 0 2.711-1.097 2.711-1.097l.387.581s-1.226 1.227-3.098 1.227c-2.453 0-4.519-1.808-4.519-4.519.065-3.034 2.066-4.647 4.26-4.647zm2.84 3.745c-.065-2.13-1.356-3.099-2.776-3.099-1.613 0-3.098 1.033-3.42 3.099h6.196zm4.97-3.551h.71v1.55c0 .387-.064.71-.064.71h.064c.452-1.291 2.001-2.453 3.357-2.453 1.743 0 2.582.839 2.775 2.388h.065c.516-1.226 1.807-2.388 3.292-2.388 2.259 0 2.905 1.355 2.905 3.42v5.552h-.71v-5.358c0-1.613-.323-2.969-2.195-2.969-1.42 0-2.711 1.291-3.098 2.647-.129.387-.194.839-.194 1.355v4.26h-.71v-5.293c0-1.484-.194-2.969-2.13-2.969-1.55 0-2.776 1.356-3.163 2.776-.13.387-.13.774-.13 1.162v4.26h-.71v-8.65h-.064zm17.687 0h.71v1.033c0 .387-.065.71-.065.71h.065s.71-1.936 3.163-1.936c2.324 0 3.744 1.872 3.744 4.583 0 2.775-1.614 4.583-3.873 4.583-2.26 0-3.034-1.937-3.034-1.937h-.065s.065.323.065.775v4.454h-.71V44.974zm3.744 8.198c1.678 0 3.098-1.42 3.098-3.873 0-2.324-1.226-3.873-3.034-3.873-1.614 0-3.098 1.162-3.098 3.873.064 2.001 1.097 3.873 3.034 3.873zm12.006-8.392a4.49 4.49 0 014.518 4.519c0 2.582-2.001 4.648-4.518 4.648-2.518 0-4.519-2.002-4.519-4.648 0-2.582 2.001-4.518 4.519-4.518zm0 8.392c2.065 0 3.744-1.678 3.744-3.873 0-2.13-1.679-3.808-3.744-3.808-2.066 0-3.744 1.613-3.744 3.808s1.678 3.873 3.744 3.873zm7.487-8.198h.775l2.388 6.842.323.969h.064s.129-.517.323-.969l2.388-6.777h.839l2.389 6.777.323.969h.064s.129-.517.323-.969l2.388-6.842h.775l-3.099 8.714h-.774l-2.453-6.777-.323-.968h-.064s-.129.516-.323.968l-2.453 6.777h-.775l-3.098-8.714zm20.462-.194c2.388 0 3.55 1.873 3.55 4.003 0 .193-.064.451-.064.451h-6.972c0 2.518 1.679 4.002 3.744 4.002 1.678 0 2.711-1.097 2.711-1.097l.388.581s-1.227 1.227-3.099 1.227c-2.453 0-4.518-1.808-4.518-4.519 0-3.034 2.001-4.647 4.26-4.647zm2.776 3.745c-.065-2.13-1.356-3.099-2.776-3.099-1.614 0-3.098 1.033-3.421 3.099h6.197zm4.97-3.551h.71v1.679c0 .387-.065.71-.065.71h.065c.452-1.356 1.42-2.453 2.775-2.453.258 0 .517.064.517.064v.71s-.194-.064-.388-.064c-1.355 0-2.194 1.162-2.582 2.453-.193.58-.258 1.226-.258 1.807v3.744h-.71v-8.65h-.064zm13.103 11.232s.516.387 1.097.387c.839 0 1.356-.775 1.679-1.55l.645-1.42-3.615-8.649h.775l2.905 6.972c.193.387.322.839.322.839h.065s.129-.388.323-.84l2.904-6.97h.775l-4.454 10.779c-.387.904-1.097 1.614-2.195 1.614-.839 0-1.42-.517-1.42-.517l.194-.645zm15.234-11.426a4.49 4.49 0 014.518 4.519c0 2.582-2.001 4.648-4.518 4.648s-4.518-2.002-4.518-4.648c0-2.582 2.001-4.518 4.518-4.518zm0 8.392c2.065 0 3.744-1.678 3.744-3.873 0-2.13-1.679-3.808-3.744-3.808-2.066 0-3.744 1.613-3.744 3.808s1.678 3.873 3.744 3.873zm8.52-8.198h.71v5.293c0 1.485.193 2.97 2.13 2.97 2.195 0 3.55-1.937 3.55-3.938v-4.26h.71v8.714h-.71v-1.55c0-.387.065-.71.065-.71h-.065c-.323.84-1.485 2.453-3.615 2.453s-2.904-1.161-2.904-3.42v-5.552h.129zm12.006 0h.71v1.679c0 .387-.064.71-.064.71h.064c.452-1.356 1.421-2.453 2.776-2.453.258 0 .516.064.516.064v.71s-.193-.064-.387-.064c-1.355 0-2.194 1.162-2.582 2.453-.193.58-.258 1.226-.258 1.807v3.744h-.71v-8.65h-.065zm7.359 7.101s.968 1.097 2.711 1.097c1.033 0 2.001-.581 2.001-1.614 0-2.194-4.777-1.614-4.777-4.454 0-1.549 1.291-2.323 2.776-2.323 1.807 0 2.582.968 2.582.968l-.452.58s-.71-.838-2.195-.838c-.968 0-1.936.452-1.936 1.613 0 2.26 4.777 1.614 4.777 4.454 0 1.42-1.162 2.324-2.776 2.324-2.13 0-3.163-1.226-3.163-1.226l.452-.581zm13.232-7.295c2.388 0 3.55 1.873 3.55 4.003 0 .193-.064.451-.064.451h-6.971c0 2.518 1.678 4.002 3.743 4.002 1.679 0 2.711-1.097 2.711-1.097l.388.581s-1.227 1.227-3.099 1.227c-2.452 0-4.518-1.808-4.518-4.519.065-3.034 2.066-4.647 4.26-4.647zm2.776 3.745c-.065-2.13-1.356-3.099-2.776-3.099-1.614 0-3.098 1.033-3.421 3.099h6.197zm4.905-7.036h.71v10.198c0 1.227.646 1.356 1.033 1.356h.258v.71s-.129.064-.322.064c-.517 0-1.679-.193-1.679-1.807V41.49zm6.197 4.195h-1.097v-.645h1.097v-.388c0-2.904 1.872-3.227 2.775-3.227.259 0 .452.065.452.065v.71s-.129-.065-.387-.065c-.71 0-2.066.258-2.066 2.517v.388h2.389v.645h-2.389v8.004h-.71v-8.004h-.064z" fill="#666"/></svg>